<svg xmlns="http://www.w3.org/2000/svg" viewBox="0 0 420 300" role="img" aria-label="Default WorldRoPE positional similarity heatmap"><rect width="420" height="300" fill="#fff"/><rect x="1" y="1" width="18" height="18" fill="rgb(182,219,220)"/><rect x="21" y="1" width="18" height="18" fill="rgb(166,211,213)"/><rect x="41" y="1" width="18" height="18" fill="rgb(150,204,206)"/><rect x="61" y="1" width="18" height="18" fill="rgb(135,197,200)"/><rect x="81" y="1" width="18" height="18" fill="rgb(123,191,194)"/><rect x="101" y="1" width="18" height="18" fill="rgb(114,186,190)"/><rect x="121" y="1" width="18" height="18" fill="rgb(108,184,187)"/><rect x="141" y="1" width="18" height="18" fill="rgb(105,182,186)"/><rect x="161" y="1" width="18" height="18" fill="rgb(106,183,187)"/><rect x="181" y="1" width="18" height="18" fill="rgb(110,185,188)"/><rect x="201" y="1" width="18" height="18" fill="rgb(116,188,191)"/><rect x="221" y="1" width="18" height="18" fill="rgb(124,191,195)"/><rect x="241" y="1" width="18" height="18" fill="rgb(134,196,199)"/><rect x="261" y="1" width="18" height="18" fill="rgb(144,201,203)"/><rect x="281" y="1" width="18" height="18" fill="rgb(154,205,208)"/><rect x="301" y="1" width="18" height="18" fill="rgb(163,210,212)"/><rect x="321" y="1" width="18" height="18" fill="rgb(172,214,216)"/><rect x="341" y="1" width="18" height="18" fill="rgb(179,217,219)"/><rect x="361" y="1" width="18" height="18" fill="rgb(184,220,221)"/><rect x="381" y="1" width="18" height="18" fill="rgb(188,221,223)"/><rect x="401" y="1" width="18" height="18" fill="rgb(189,222,223)"/><rect x="1" y="21" width="18" height="18" fill="rgb(167,211,213)"/><rect x="21" y="21" width="18" height="18" fill="rgb(151,204,206)"/><rect x="41" y="21" width="18" height="18" fill="rgb(135,196,199)"/><rect x="61" y="21" width="18" height="18" fill="rgb(120,189,193)"/><rect x="81" y="21" width="18" height="18" fill="rgb(108,184,187)"/><rect x="101" y="21" width="18" height="18" fill="rgb(98,179,183)"/><rect x="121" y="21" width="18" height="18" fill="rgb(92,176,181)"/><rect x="141" y="21" width="18" height="18" fill="rgb(90,175,180)"/><rect x="161" y="21" width="18" height="18" fill="rgb(91,176,180)"/><rect x="181" y="21" width="18" height="18" fill="rgb(95,178,182)"/><rect x="201" y="21" width="18" height="18" fill="rgb(102,181,185)"/><rect x="221" y="21" width="18" height="18" fill="rgb(110,185,188)"/><rect x="241" y="21" width="18" height="18" fill="rgb(119,189,193)"/><rect x="261" y="21" width="18" height="18" fill="rgb(130,194,197)"/><rect x="281" y="21" width="18" height="18" fill="rgb(140,199,202)"/><rect x="301" y="21" width="18" height="18" fill="rgb(149,203,206)"/><rect x="321" y="21" width="18" height="18" fill="rgb(158,207,209)"/><rect x="341" y="21" width="18" height="18" fill="rgb(165,211,213)"/><rect x="361" y="21" width="18" height="18" fill="rgb(170,213,215)"/><rect x="381" y="21" width="18" height="18" fill="rgb(174,215,217)"/><rect x="401" y="21" width="18" height="18" fill="rgb(176,216,218)"/><rect x="1" y="41" width="18" height="18" fill="rgb(150,203,206)"/><rect x="21" y="41" width="18" height="18" fill="rgb(134,196,199)"/><rect x="41" y="41" width="18" height="18" fill="rgb(118,189,192)"/><rect x="61" y="41" width="18" height="18" fill="rgb(104,182,186)"/><rect x="81" y="41" width="18" height="18" fill="rgb(92,176,180)"/><rect x="101" y="41" width="18" height="18" fill="rgb(82,172,176)"/><rect x="121" y="41" width="18" height="18" fill="rgb(77,169,174)"/><rect x="141" y="41" width="18" height="18" fill="rgb(75,168,173)"/><rect x="161" y="41" width="18" height="18" fill="rgb(76,168,174)"/><rect x="181" y="41" width="18" height="18" fill="rgb(80,171,175)"/><rect x="201" y="41" width="18" height="18" fill="rgb(87,174,178)"/><rect x="221" y="41" width="18" height="18" fill="rgb(95,178,182)"/><rect x="241" y="41" width="18" height="18" fill="rgb(105,182,186)"/><rect x="261" y="41" width="18" height="18" fill="rgb(116,187,191)"/><rect x="281" y="41" width="18" height="18" fill="rgb(126,192,195)"/><rect x="301" y="41" width="18" height="18" fill="rgb(136,197,200)"/><rect x="321" y="41" width="18" height="18" fill="rgb(144,201,204)"/><rect x="341" y="41" width="18" height="18" fill="rgb(152,204,207)"/><rect x="361" y="41" width="18" height="18" fill="rgb(157,207,209)"/><rect x="381" y="41" width="18" height="18" fill="rgb(161,209,211)"/><rect x="401" y="41" width="18" height="18" fill="rgb(164,210,212)"/><rect x="1" y="61" width="18" height="18" fill="rgb(133,196,199)"/><rect x="21" y="61" width="18" height="18" fill="rgb(118,188,192)"/><rect x="41" y="61" width="18" height="18" fill="rgb(102,181,185)"/><rect x="61" y="61" width="18" height="18" fill="rgb(88,174,179)"/><rect x="81" y="61" width="18" height="18" fill="rgb(76,169,174)"/><rect x="101" y="61" width="18" height="18" fill="rgb(67,164,170)"/><rect x="121" y="61" width="18" height="18" fill="rgb(62,162,167)"/><rect x="141" y="61" width="18" height="18" fill="rgb(60,161,167)"/><rect x="161" y="61" width="18" height="18" fill="rgb(62,162,167)"/><rect x="181" y="61" width="18" height="18" fill="rgb(66,164,169)"/><rect x="201" y="61" width="18" height="18" fill="rgb(73,167,172)"/><rect x="221" y="61" width="18" height="18" fill="rgb(82,171,176)"/><rect x="241" y="61" width="18" height="18" fill="rgb(92,176,181)"/><rect x="261" y="61" width="18" height="18" fill="rgb(102,181,185)"/><rect x="281" y="61" width="18" height="18" fill="rgb(113,186,190)"/><rect x="301" y="61" width="18" height="18" fill="rgb(123,191,194)"/><rect x="321" y="61" width="18" height="18" fill="rgb(132,195,198)"/><rect x="341" y="61" width="18" height="18" fill="rgb(140,199,202)"/><rect x="361" y="61" width="18" height="18" fill="rgb(146,201,204)"/><rect x="381" y="61" width="18" height="18" fill="rgb(150,203,206)"/><rect x="401" y="61" width="18" height="18" fill="rgb(152,205,207)"/><rect x="1" y="81" width="18" height="18" fill="rgb(118,189,192)"/><rect x="21" y="81" width="18" height="18" fill="rgb(103,181,186)"/><rect x="41" y="81" width="18" height="18" fill="rgb(88,174,179)"/><rect x="61" y="81" width="18" height="18" fill="rgb(74,168,173)"/><rect x="81" y="81" width="18" height="18" fill="rgb(63,162,168)"/><rect x="101" y="81" width="18" height="18" fill="rgb(54,158,164)"/><rect x="121" y="81" width="18" height="18" fill="rgb(49,156,162)"/><rect x="141" y="81" width="18" height="18" fill="rgb(47,155,161)"/><rect x="161" y="81" width="18" height="18" fill="rgb(49,156,162)"/><rect x="181" y="81" width="18" height="18" fill="rgb(54,158,164)"/><rect x="201" y="81" width="18" height="18" fill="rgb(61,162,167)"/><rect x="221" y="81" width="18" height="18" fill="rgb(70,166,171)"/><rect x="241" y="81" width="18" height="18" fill="rgb(81,171,176)"/><rect x="261" y="81" width="18" height="18" fill="rgb(91,176,180)"/><rect x="281" y="81" width="18" height="18" fill="rgb(102,181,185)"/><rect x="301" y="81" width="18" height="18" fill="rgb(112,186,190)"/><rect x="321" y="81" width="18" height="18" fill="rgb(122,190,194)"/><rect x="341" y="81" width="18" height="18" fill="rgb(129,194,197)"/><rect x="361" y="81" width="18" height="18" fill="rgb(136,197,200)"/><rect x="381" y="81" width="18" height="18" fill="rgb(140,199,202)"/><rect x="401" y="81" width="18" height="18" fill="rgb(142,200,203)"/><rect x="1" y="101" width="18" height="18" fill="rgb(107,183,187)"/><rect x="21" y="101" width="18" height="18" fill="rgb(92,176,181)"/><rect x="41" y="101" width="18" height="18" fill="rgb(77,169,174)"/><rect x="61" y="101" width="18" height="18" fill="rgb(63,163,168)"/><rect x="81" y="101" width="18" height="18" fill="rgb(52,157,163)"/><rect x="101" y="101" width="18" height="18" fill="rgb(44,153,160)"/><rect x="121" y="101" width="18" height="18" fill="rgb(39,151,157)"/><rect x="141" y="101" width="18" height="18" fill="rgb(38,150,157)"/><rect x="161" y="101" width="18" height="18" fill="rgb(40,151,158)"/><rect x="181" y="101" width="18" height="18" fill="rgb(45,154,160)"/><rect x="201" y="101" width="18" height="18" fill="rgb(52,157,163)"/><rect x="221" y="101" width="18" height="18" fill="rgb(61,162,167)"/><rect x="241" y="101" width="18" height="18" fill="rgb(72,167,172)"/><rect x="261" y="101" width="18" height="18" fill="rgb(83,172,177)"/><rect x="281" y="101" width="18" height="18" fill="rgb(94,177,181)"/><rect x="301" y="101" width="18" height="18" fill="rgb(104,182,186)"/><rect x="321" y="101" width="18" height="18" fill="rgb(114,186,190)"/><rect x="341" y="101" width="18" height="18" fill="rgb(122,190,194)"/><rect x="361" y="101" width="18" height="18" fill="rgb(128,193,196)"/><rect x="381" y="101" width="18" height="18" fill="rgb(132,195,198)"/><rect x="401" y="101" width="18" height="18" fill="rgb(135,197,200)"/><rect x="1" y="121" width="18" height="18" fill="rgb(99,180,184)"/><rect x="21" y="121" width="18" height="18" fill="rgb(85,173,177)"/><rect x="41" y="121" width="18" height="18" fill="rgb(70,166,171)"/><rect x="61" y="121" width="18" height="18" fill="rgb(57,159,165)"/><rect x="81" y="121" width="18" height="18" fill="rgb(45,154,160)"/><rect x="101" y="121" width="18" height="18" fill="rgb(37,150,157)"/><rect x="121" y="121" width="18" height="18" fill="rgb(33,148,155)"/><rect x="141" y="121" width="18" height="18" fill="rgb(31,147,154)"/><rect x="161" y="121" width="18" height="18" fill="rgb(34,149,155)"/><rect x="181" y="121" width="18" height="18" fill="rgb(39,151,157)"/><rect x="201" y="121" width="18" height="18" fill="rgb(46,155,161)"/><rect x="221" y="121" width="18" height="18" fill="rgb(56,159,165)"/><rect x="241" y="121" width="18" height="18" fill="rgb(66,164,169)"/><rect x="261" y="121" width="18" height="18" fill="rgb(78,169,174)"/><rect x="281" y="121" width="18" height="18" fill="rgb(89,175,179)"/><rect x="301" y="121" width="18" height="18" fill="rgb(99,180,184)"/><rect x="321" y="121" width="18" height="18" fill="rgb(109,184,188)"/><rect x="341" y="121" width="18" height="18" fill="rgb(117,188,192)"/><rect x="361" y="121" width="18" height="18" fill="rgb(123,191,194)"/><rect x="381" y="121" width="18" height="18" fill="rgb(128,193,196)"/><rect x="401" y="121" width="18" height="18" fill="rgb(131,194,198)"/><rect x="1" y="141" width="18" height="18" fill="rgb(97,178,183)"/><rect x="21" y="141" width="18" height="18" fill="rgb(82,171,176)"/><rect x="41" y="141" width="18" height="18" fill="rgb(68,165,170)"/><rect x="61" y="141" width="18" height="18" fill="rgb(54,158,164)"/><rect x="81" y="141" width="18" height="18" fill="rgb(43,153,159)"/><rect x="101" y="141" width="18" height="18" fill="rgb(35,149,156)"/><rect x="121" y="141" width="18" height="18" fill="rgb(31,147,154)"/><rect x="141" y="141" width="18" height="18" fill="rgb(29,146,153)"/><rect x="161" y="141" width="18" height="18" fill="rgb(32,148,154)"/><rect x="181" y="141" width="18" height="18" fill="rgb(37,150,156)"/><rect x="201" y="141" width="18" height="18" fill="rgb(44,154,160)"/><rect x="221" y="141" width="18" height="18" fill="rgb(54,158,164)"/><rect x="241" y="141" width="18" height="18" fill="rgb(65,163,169)"/><rect x="261" y="141" width="18" height="18" fill="rgb(76,168,174)"/><rect x="281" y="141" width="18" height="18" fill="rgb(87,174,178)"/><rect x="301" y="141" width="18" height="18" fill="rgb(97,179,183)"/><rect x="321" y="141" width="18" height="18" fill="rgb(107,183,187)"/><rect x="341" y="141" width="18" height="18" fill="rgb(115,187,191)"/><rect x="361" y="141" width="18" height="18" fill="rgb(122,190,194)"/><rect x="381" y="141" width="18" height="18" fill="rgb(126,192,196)"/><rect x="401" y="141" width="18" height="18" fill="rgb(129,194,197)"/><rect x="1" y="161" width="18" height="18" fill="rgb(99,180,184)"/><rect x="21" y="161" width="18" height="18" fill="rgb(85,173,177)"/><rect x="41" y="161" width="18" height="18" fill="rgb(70,166,171)"/><rect x="61" y="161" width="18" height="18" fill="rgb(57,159,165)"/><rect x="81" y="161" width="18" height="18" fill="rgb(45,154,160)"/><rect x="101" y="161" width="18" height="18" fill="rgb(37,150,157)"/><rect x="121" y="161" width="18" height="18" fill="rgb(33,148,155)"/><rect x="141" y="161" width="18" height="18" fill="rgb(31,147,154)"/><rect x="161" y="161" width="18" height="18" fill="rgb(34,149,155)"/><rect x="181" y="161" width="18" height="18" fill="rgb(39,151,157)"/><rect x="201" y="161" width="18" height="18" fill="rgb(46,155,161)"/><rect x="221" y="161" width="18" height="18" fill="rgb(56,159,165)"/><rect x="241" y="161" width="18" height="18" fill="rgb(66,164,169)"/><rect x="261" y="161" width="18" height="18" fill="rgb(78,169,174)"/><rect x="281" y="161" width="18" height="18" fill="rgb(89,175,179)"/><rect x="301" y="161" width="18" height="18" fill="rgb(99,180,184)"/><rect x="321" y="161" width="18" height="18" fill="rgb(109,184,188)"/><rect x="341" y="161" width="18" height="18" fill="rgb(117,188,192)"/><rect x="361" y="161" width="18" height="18" fill="rgb(123,191,194)"/><rect x="381" y="161" width="18" height="18" fill="rgb(128,193,196)"/><rect x="401" y="161" width="18" height="18" fill="rgb(131,194,198)"/><rect x="1" y="181" width="18" height="18" fill="rgb(107,183,187)"/><rect x="21" y="181" width="18" height="18" fill="rgb(92,176,181)"/><rect x="41" y="181" width="18" height="18" fill="rgb(77,169,174)"/><rect x="61" y="181" width="18" height="18" fill="rgb(63,163,168)"/><rect x="81" y="181" width="18" height="18" fill="rgb(52,157,163)"/><rect x="101" y="181" width="18" height="18" fill="rgb(44,153,160)"/><rect x="121" y="181" width="18" height="18" fill="rgb(39,151,157)"/><rect x="141" y="181" width="18" height="18" fill="rgb(38,150,157)"/><rect x="161" y="181" width="18" height="18" fill="rgb(40,151,158)"/><rect x="181" y="181" width="18" height="18" fill="rgb(45,154,160)"/><rect x="201" y="181" width="18" height="18" fill="rgb(52,157,163)"/><rect x="221" y="181" width="18" height="18" fill="rgb(61,162,167)"/><rect x="241" y="181" width="18" height="18" fill="rgb(72,167,172)"/><rect x="261" y="181" width="18" height="18" fill="rgb(83,172,177)"/><rect x="281" y="181" width="18" height="18" fill="rgb(94,177,181)"/><rect x="301" y="181" width="18" height="18" fill="rgb(104,182,186)"/><rect x="321" y="181" width="18" height="18" fill="rgb(114,186,190)"/><rect x="341" y="181" width="18" height="18" fill="rgb(122,190,194)"/><rect x="361" y="181" width="18" height="18" fill="rgb(128,193,196)"/><rect x="381" y="181" width="18" height="18" fill="rgb(132,195,198)"/><rect x="401" y="181" width="18" height="18" fill="rgb(135,197,200)"/><rect x="1" y="201" width="18" height="18" fill="rgb(118,189,192)"/><rect x="21" y="201" width="18" height="18" fill="rgb(103,181,186)"/><rect x="41" y="201" width="18" height="18" fill="rgb(88,174,179)"/><rect x="61" y="201" width="18" height="18" fill="rgb(74,168,173)"/><rect x="81" y="201" width="18" height="18" fill="rgb(63,162,168)"/><rect x="101" y="201" width="18" height="18" fill="rgb(54,158,164)"/><rect x="121" y="201" width="18" height="18" fill="rgb(49,156,162)"/><rect x="141" y="201" width="18" height="18" fill="rgb(47,155,161)"/><rect x="161" y="201" width="18" height="18" fill="rgb(49,156,162)"/><rect x="181" y="201" width="18" height="18" fill="rgb(54,158,164)"/><rect x="201" y="201" width="18" height="18" fill="rgb(61,162,167)"/><rect x="221" y="201" width="18" height="18" fill="rgb(70,166,171)"/><rect x="241" y="201" width="18" height="18" fill="rgb(81,171,176)"/><rect x="261" y="201" width="18" height="18" fill="rgb(91,176,180)"/><rect x="281" y="201" width="18" height="18" fill="rgb(102,181,185)"/><rect x="301" y="201" width="18" height="18" fill="rgb(112,186,190)"/><rect x="321" y="201" width="18" height="18" fill="rgb(122,190,194)"/><rect x="341" y="201" width="18" height="18" fill="rgb(129,194,197)"/><rect x="361" y="201" width="18" height="18" fill="rgb(136,197,200)"/><rect x="381" y="201" width="18" height="18" fill="rgb(140,199,202)"/><rect x="401" y="201" width="18" height="18" fill="rgb(142,200,203)"/><rect x="1" y="221" width="18" height="18" fill="rgb(133,196,199)"/><rect x="21" y="221" width="18" height="18" fill="rgb(118,188,192)"/><rect x="41" y="221" width="18" height="18" fill="rgb(102,181,185)"/><rect x="61" y="221" width="18" height="18" fill="rgb(88,174,179)"/><rect x="81" y="221" width="18" height="18" fill="rgb(76,169,174)"/><rect x="101" y="221" width="18" height="18" fill="rgb(67,164,170)"/><rect x="121" y="221" width="18" height="18" fill="rgb(62,162,167)"/><rect x="141" y="221" width="18" height="18" fill="rgb(60,161,167)"/><rect x="161" y="221" width="18" height="18" fill="rgb(62,162,167)"/><rect x="181" y="221" width="18" height="18" fill="rgb(66,164,169)"/><rect x="201" y="221" width="18" height="18" fill="rgb(73,167,172)"/><rect x="221" y="221" width="18" height="18" fill="rgb(82,171,176)"/><rect x="241" y="221" width="18" height="18" fill="rgb(92,176,181)"/><rect x="261" y="221" width="18" height="18" fill="rgb(102,181,185)"/><rect x="281" y="221" width="18" height="18" fill="rgb(113,186,190)"/><rect x="301" y="221" width="18" height="18" fill="rgb(123,191,194)"/><rect x="321" y="221" width="18" height="18" fill="rgb(132,195,198)"/><rect x="341" y="221" width="18" height="18" fill="rgb(140,199,202)"/><rect x="361" y="221" width="18" height="18" fill="rgb(146,201,204)"/><rect x="381" y="221" width="18" height="18" fill="rgb(150,203,206)"/><rect x="401" y="221" width="18" height="18" fill="rgb(152,205,207)"/><rect x="1" y="241" width="18" height="18" fill="rgb(150,203,206)"/><rect x="21" y="241" width="18" height="18" fill="rgb(134,196,199)"/><rect x="41" y="241" width="18" height="18" fill="rgb(118,189,192)"/><rect x="61" y="241" width="18" height="18" fill="rgb(104,182,186)"/><rect x="81" y="241" width="18" height="18" fill="rgb(92,176,180)"/><rect x="101" y="241" width="18" height="18" fill="rgb(82,172,176)"/><rect x="121" y="241" width="18" height="18" fill="rgb(77,169,174)"/><rect x="141" y="241" width="18" height="18" fill="rgb(75,168,173)"/><rect x="161" y="241" width="18" height="18" fill="rgb(76,168,174)"/><rect x="181" y="241" width="18" height="18" fill="rgb(80,171,175)"/><rect x="201" y="241" width="18" height="18" fill="rgb(87,174,178)"/><rect x="221" y="241" width="18" height="18" fill="rgb(95,178,182)"/><rect x="241" y="241" width="18" height="18" fill="rgb(105,182,186)"/><rect x="261" y="241" width="18" height="18" fill="rgb(116,187,191)"/><rect x="281" y="241" width="18" height="18" fill="rgb(126,192,195)"/><rect x="301" y="241" width="18" height="18" fill="rgb(136,197,200)"/><rect x="321" y="241" width="18" height="18" fill="rgb(144,201,204)"/><rect x="341" y="241" width="18" height="18" fill="rgb(152,204,207)"/><rect x="361" y="241" width="18" height="18" fill="rgb(157,207,209)"/><rect x="381" y="241" width="18" height="18" fill="rgb(161,209,211)"/><rect x="401" y="241" width="18" height="18" fill="rgb(164,210,212)"/><rect x="1" y="261" width="18" height="18" fill="rgb(167,211,213)"/><rect x="21" y="261" width="18" height="18" fill="rgb(151,204,206)"/><rect x="41" y="261" width="18" height="18" fill="rgb(135,196,199)"/><rect x="61" y="261" width="18" height="18" fill="rgb(120,189,193)"/><rect x="81" y="261" width="18" height="18" fill="rgb(108,184,187)"/><rect x="101" y="261" width="18" height="18" fill="rgb(98,179,183)"/><rect x="121" y="261" width="18" height="18" fill="rgb(92,176,181)"/><rect x="141" y="261" width="18" height="18" fill="rgb(90,175,180)"/><rect x="161" y="261" width="18" height="18" fill="rgb(91,176,180)"/><rect x="181" y="261" width="18" height="18" fill="rgb(95,178,182)"/><rect x="201" y="261" width="18" height="18" fill="rgb(102,181,185)"/><rect x="221" y="261" width="18" height="18" fill="rgb(110,185,188)"/><rect x="241" y="261" width="18" height="18" fill="rgb(119,189,193)"/><rect x="261" y="261" width="18" height="18" fill="rgb(130,194,197)"/><rect x="281" y="261" width="18" height="18" fill="rgb(140,199,202)"/><rect x="301" y="261" width="18" height="18" fill="rgb(149,203,206)"/><rect x="321" y="261" width="18" height="18" fill="rgb(158,207,209)"/><rect x="341" y="261" width="18" height="18" fill="rgb(165,211,213)"/><rect x="361" y="261" width="18" height="18" fill="rgb(170,213,215)"/><rect x="381" y="261" width="18" height="18" fill="rgb(174,215,217)"/><rect x="401" y="261" width="18" height="18" fill="rgb(176,216,218)"/><rect x="1" y="281" width="18" height="18" fill="rgb(182,219,220)"/><rect x="21" y="281" width="18" height="18" fill="rgb(166,211,213)"/><rect x="41" y="281" width="18" height="18" fill="rgb(150,204,206)"/><rect x="61" y="281" width="18" height="18" fill="rgb(135,197,200)"/><rect x="81" y="281" width="18" height="18" fill="rgb(123,191,194)"/><rect x="101" y="281" width="18" height="18" fill="rgb(114,186,190)"/><rect x="121" y="281" width="18" height="18" fill="rgb(108,184,187)"/><rect x="141" y="281" width="18" height="18" fill="rgb(105,182,186)"/><rect x="161" y="281" width="18" height="18" fill="rgb(106,183,187)"/><rect x="181" y="281" width="18" height="18" fill="rgb(110,185,188)"/><rect x="201" y="281" width="18" height="18" fill="rgb(116,188,191)"/><rect x="221" y="281" width="18" height="18" fill="rgb(124,191,195)"/><rect x="241" y="281" width="18" height="18" fill="rgb(134,196,199)"/><rect x="261" y="281" width="18" height="18" fill="rgb(144,201,203)"/><rect x="281" y="281" width="18" height="18" fill="rgb(154,205,208)"/><rect x="301" y="281" width="18" height="18" fill="rgb(163,210,212)"/><rect x="321" y="281" width="18" height="18" fill="rgb(172,214,216)"/><rect x="341" y="281" width="18" height="18" fill="rgb(179,217,219)"/><rect x="361" y="281" width="18" height="18" fill="rgb(184,220,221)"/><rect x="381" y="281" width="18" height="18" fill="rgb(188,221,223)"/><rect x="401" y="281" width="18" height="18" fill="rgb(189,222,223)"/><rect x="201.5" y="141.5" width="17" height="17" fill="none" stroke="#d87948" stroke-width="3"/></svg>
